<svg width="210.49mm" height="297.37mm" version="1.1" viewBox="0 0 210.49 297.37" xmlns="http://www.w3.org/2000/svg" xmlns:xlink="http://www.w3.org/1999/xlink">
  <defs>
    <linearGradient id="linearGradient1407">
      <stop stop-color="#d4b3f6" offset="0"/>
      <stop stop-color="#d4b3f6" stop-opacity="0" offset="1"/>
    </linearGradient>
    <linearGradient id="linearGradient1409" x1="61.579" x2="214.02" y1="6.43" y2="52.261" gradientTransform="matrix(2.1438 0 0 1.1484 -242.47 -34.801)" gradientUnits="userSpaceOnUse" xlink:href="#linearGradient1407"/>
    <linearGradient id="linearGradient4515" x1="61.579" x2="214.02" y1="6.43" y2="52.261" gradientTransform="matrix(2.1438 0 0 -1.1484 -242.22 356.63)" gradientUnits="userSpaceOnUse" xlink:href="#linearGradient1407"/>
  </defs>
  <g transform="translate(-1.069 -.63131)">
    <rect x="1.3195" y=".63132" width="210.24" height="297.37" ry="3.9299e-17" fill="#fff"/>
    <path d="m129.44 321.04a39.421 39.421 0 0 1-0.26355-4.5475 39.421 39.421 0 0 1 39.421-39.421 39.421 39.421 0 0 1 39.421 39.421 39.421 39.421 0 0 1-0.26355 4.5475z" fill="#4c5ff3" fill-opacity=".090164" stroke-linecap="round" stroke-width="1.7324"/>
    <path d="m1.3195 321.2v-23.199l209.99-69.974 0.24701 93.011z" fill="url(#linearGradient4515)" opacity=".66235" style="mix-blend-mode:multiply"/>
    <g fill-opacity=".93103" fill-rule="evenodd" opacity=".40163" stroke-linecap="round">
      <path d="m142.9 277.58 5.5752-1.4598 0.90011-6.0135-5.577 1.4718z" points="148.4718,276.11756 149.37191,270.10409 143.79489,271.57585 142.89657,277.57734 " fill="#e9e9ff"/>
      <path d="m138.66 274.58 0.89953-6.0096 4.2385 3.0036-0.89832 6.0015z" points="139.55639,268.57224 143.79489,271.57585 142.89657,277.57734 138.65686,274.58186 " fill="#353564"/>
      <path d="m139.56 268.57 5.5761-1.4798 4.2394 3.0116-5.577 1.4718z" points="145.13251,267.09247 149.37191,270.10409 143.79489,271.57585 139.55639,268.57224 " fill="#afafde"/>
      <path d="m138.66 274.58 5.5743-1.4678 4.2406 3.0035-5.5752 1.4598z" points="144.23118,273.1141 148.4718,276.11756 142.89657,277.57734 138.65686,274.58186 " fill="#4d4d9f"/>
      <path d="m144.23 273.11 0.90133-6.0216 4.2394 3.0116-0.90011 6.0135z" points="145.13251,267.09247 149.37191,270.10409 148.4718,276.11756 144.23118,273.1141 " fill="#d7d7ff"/>
      <path d="m138.66 274.58 5.5743-1.4678 0.90133-6.0216-5.5761 1.4798z" points="144.23118,273.1141 145.13251,267.09247 139.55639,268.57224 138.65686,274.58186 " fill="#8686bf"/>
    </g>
    <path d="m11.938 22.649c7.4053 0.30496 14.815 0.50363 22.215 0.93388 7.003 0.40717 9.28 0.6383 16.215 1.2135 8.4709 0.79325 16.93 1.8521 25.445 2.0462 4.5019 0.10259 5.9095-0.02158 10.287-0.20252 1.2302-0.10228 2.4604-0.20455 3.6906-0.30683 0.03387-0.0111-0.12311-0.49007-0.15698-0.47897-1.2283 0.08946-2.4566 0.17893-3.6849 0.26839-4.1931 0.15697-5.6054 0.26829-9.9705 0.16422-8.5041-0.20276-16.948-1.269-25.403-2.1117-2.6558-0.2243-5.3096-0.4746-7.9675-0.67291-10.241-0.76415-20.507-1.098-30.774-1.2562-0.0285 0.0073 0.07497 0.41029 0.10347 0.40298z" fill="#fff"/>
    <path d="m115.86 0.79254a39.421 39.421 0 0 0-0.26355 4.5475 39.421 39.421 0 0 0 39.421 39.421 39.421 39.421 0 0 0 39.421-39.421 39.421 39.421 0 0 0-0.26355-4.5475z" fill="#4c5ff3" fill-opacity=".090164" stroke-linecap="round" stroke-width="1.7324"/>
    <path d="m1.069 0.63131v23.199l209.99 69.974 0.24701-93.011z" fill="url(#linearGradient1409)" opacity=".66235" style="mix-blend-mode:multiply"/>
    <g fill-opacity=".93103" fill-rule="evenodd" opacity=".40163" stroke-linecap="round">
      <path d="m167.68 44.962 21.57 3.0299 11.899-19.661-21.594-2.9907z" points="189.25187,47.991733 201.1504,28.33049 179.55637,25.339756 167.68155,44.961813 " fill="#e9e9ff"/>
      <path d="m157.26 28.339 11.891-19.649 10.407 16.649-11.875 19.622z" points="169.14948,8.6906079 179.55637,25.339756 167.68155,44.961813 157.25859,28.33923 " fill="#353564"/>
      <path d="m169.15 8.6906 21.603 2.9615 10.398 16.678-21.594-2.9907z" points="190.75199,11.652106 201.1504,28.33049 179.55637,25.339756 169.14948,8.6906079 " fill="#afafde"/>
      <path d="m157.26 28.339 21.579 3.0008 10.415 16.652-21.57-3.0299z" points="178.83732,31.34002 189.25187,47.991733 167.68155,44.961813 157.25859,28.33923 " fill="#4d4d9f"/>
      <path d="m178.84 31.34 11.915-19.688 10.398 16.678-11.899 19.661z" points="190.75199,11.652106 201.1504,28.33049 189.25187,47.991733 178.83732,31.34002 " fill="#d7d7ff"/>
      <path d="m157.26 28.339 21.579 3.0008 11.915-19.688-21.603-2.9615z" points="178.83732,31.34002 190.75199,11.652106 169.14948,8.6906079 157.25859,28.33923 " fill="#8686bf"/>
    </g>
  </g>
</svg>
